<svg width="4" height="14" viewBox="0 0 4 14" fill="none" xmlns="http://www.w3.org/2000/svg">
<path d="M2.00004 3.66667C2.91671 3.66667 3.66671 2.91667 3.66671 2C3.66671 1.08334 2.91671 0.333336 2.00004 0.333336C1.08337 0.333336 0.333374 1.08334 0.333374 2C0.333374 2.91667 1.08337 3.66667 2.00004 3.66667ZM2.00004 5.33334C1.08337 5.33334 0.333374 6.08334 0.333374 7C0.333374 7.91667 1.08337 8.66667 2.00004 8.66667C2.91671 8.66667 3.66671 7.91667 3.66671 7C3.66671 6.08334 2.91671 5.33334 2.00004 5.33334ZM2.00004 10.3333C1.08337 10.3333 0.333374 11.0833 0.333374 12C0.333374 12.9167 1.08337 13.6667 2.00004 13.6667C2.91671 13.6667 3.66671 12.9167 3.66671 12C3.66671 11.0833 2.91671 10.3333 2.00004 10.3333Z" fill="#1DB385"/>
</svg>
