<svg width="19" height="14" viewBox="0 0 19 14" fill="none" xmlns="http://www.w3.org/2000/svg">
<path fill-rule="evenodd" clip-rule="evenodd" d="M14.0698 6.78774C13.7632 6.78774 13.4958 6.56195 13.4516 6.2495C13.4041 5.90705 13.6416 5.59126 13.984 5.54377C14.8506 5.42212 15.5046 4.67057 15.5063 3.79404C15.5063 2.92501 14.883 2.19013 14.024 2.04931C13.6841 1.99349 13.4533 1.67187 13.5091 1.33109C13.5658 0.990312 13.8849 0.762014 14.2273 0.816172C15.6921 1.05697 16.7561 2.31011 16.7561 3.79571C16.7528 5.29131 15.6354 6.57444 14.1565 6.78191C14.1273 6.78608 14.0982 6.78774 14.0698 6.78774Z" fill="black"/>
<mask id="mask0_603_894" style="mask-type:alpha" maskUnits="userSpaceOnUse" x="14" y="8" width="5" height="5">
<path fill-rule="evenodd" clip-rule="evenodd" d="M14.9795 8.33289H18.1406V12.1069H14.9795V8.33289Z" fill="white"/>
</mask>
<g mask="url(#mask0_603_894)">
<path fill-rule="evenodd" clip-rule="evenodd" d="M16.5486 12.1069C16.297 12.1069 16.0596 11.9536 15.9646 11.7045C15.8413 11.3821 16.0037 11.0204 16.3262 10.898C16.8911 10.683 16.8911 10.4455 16.8911 10.3314C16.8911 9.96644 16.427 9.71148 15.5121 9.57483C15.1714 9.52317 14.9356 9.20572 14.9864 8.86328C15.0372 8.52166 15.3538 8.2942 15.6979 8.33836C17.7168 8.64081 18.1409 9.589 18.1409 10.3314C18.1409 10.7846 17.9626 11.612 16.7711 12.0661C16.6978 12.0936 16.6228 12.1069 16.5486 12.1069Z" fill="black"/>
</g>
<path fill-rule="evenodd" clip-rule="evenodd" d="M9.07104 9.9264C7.09135 9.9264 4.73088 10.1697 4.73088 11.3278C4.73088 12.4952 7.09135 12.7401 9.07104 12.7401C11.0507 12.7401 13.4104 12.4977 13.4104 11.342C13.4104 10.1722 11.0507 9.9264 9.07104 9.9264ZM9.07062 13.9898C7.68833 13.9898 3.48065 13.9898 3.48065 11.3277C3.48065 8.67648 7.68833 8.67648 9.07062 8.67648C10.4529 8.67648 14.6597 8.67648 14.6597 11.3419C14.6597 13.9898 10.5995 13.9898 9.07062 13.9898Z" fill="black"/>
<path fill-rule="evenodd" clip-rule="evenodd" d="M9.07075 1.24937C7.66097 1.24937 6.51448 2.39669 6.51448 3.80647C6.51198 4.4897 6.7736 5.12876 7.2527 5.61119C7.73179 6.09362 8.37002 6.36107 9.04992 6.36357L9.07075 6.98848V6.36357C10.4805 6.36357 11.6279 5.21708 11.6279 3.80647C11.6279 2.39669 10.4805 1.24937 9.07075 1.24937ZM9.07039 7.61363H9.04789C8.03138 7.6103 7.07903 7.21203 6.36581 6.49214C5.65092 5.77309 5.26015 4.81824 5.26432 3.80423C5.26432 1.70789 6.97155 -0.000183105 9.07039 -0.000183105C11.1701 -0.000183105 12.8773 1.70788 12.8773 3.80673C12.8773 5.90557 11.1701 7.61363 9.07039 7.61363Z" fill="black"/>
<path fill-rule="evenodd" clip-rule="evenodd" d="M4.07073 6.7879C4.0424 6.7879 4.01324 6.78624 3.98408 6.78207C2.50514 6.5746 1.38865 5.29147 1.38531 3.79753C1.38531 2.31026 2.44932 1.05713 3.91409 0.816329C4.26487 0.761338 4.57565 0.992135 4.63231 1.33125C4.68814 1.67203 4.45734 1.99365 4.11739 2.04947C3.25836 2.19028 2.63512 2.92517 2.63512 3.79587C2.63679 4.67073 3.29085 5.42311 4.15655 5.54393C4.499 5.59142 4.73646 5.90721 4.68897 6.24965C4.64481 6.5621 4.37735 6.7879 4.07073 6.7879Z" fill="black"/>
<path fill-rule="evenodd" clip-rule="evenodd" d="M1.59302 12.1072C1.51887 12.1072 1.44388 12.0939 1.37056 12.0664C0.178245 11.6115 -6.10352e-05 10.7841 -6.10352e-05 10.3317C-6.10352e-05 9.59011 0.42404 8.64109 2.44373 8.33864C2.78784 8.29532 3.10279 8.52195 3.15445 8.86356C3.20527 9.20601 2.96948 9.52346 2.6287 9.57512C1.71384 9.71176 1.24975 9.96672 1.24975 10.3317C1.24975 10.4458 1.24974 10.6824 1.81549 10.8982C2.13794 11.0207 2.30042 11.3823 2.1771 11.7048C2.08212 11.9539 1.84465 12.1072 1.59302 12.1072Z" fill="black"/>
</svg>
