<svg width="17" height="17" viewBox="0 0 17 17" fill="none" xmlns="http://www.w3.org/2000/svg">
<path fill-rule="evenodd" clip-rule="evenodd" d="M8.56543 12.8968C8.23529 12.8968 7.96735 12.6289 7.96735 12.2988V10.2756C7.96735 9.94549 8.23529 9.67755 8.56543 9.67755C8.89557 9.67755 9.16351 9.94549 9.16351 10.2756V12.2988C9.16351 12.6289 8.89557 12.8968 8.56543 12.8968Z" fill="black"/>
<mask id="mask0_603_1056" style="mask-type:alpha" maskUnits="userSpaceOnUse" x="0" y="2" width="17" height="9">
<path fill-rule="evenodd" clip-rule="evenodd" d="M0.595032 2.65231H16.5358V10.8748H0.595032V2.65231Z" fill="white"/>
</mask>
<g mask="url(#mask0_603_1056)">
<path fill-rule="evenodd" clip-rule="evenodd" d="M1.7912 8.0853C3.68593 9.1148 6.07507 9.6786 8.5615 9.6786C11.0527 9.6786 13.4443 9.1148 15.3398 8.0853V5.69137C15.3398 4.67463 14.5176 3.84848 13.5057 3.84848H3.6333C2.61735 3.84848 1.7912 4.67144 1.7912 5.6834V8.0853ZM8.5615 10.8748C5.73456 10.8748 3.00969 10.1906 0.890884 8.94973C0.707471 8.84288 0.595032 8.64671 0.595032 8.43379V5.6834C0.595032 4.01196 1.95786 2.65231 3.6333 2.65231H13.5057C15.1771 2.65231 16.5359 4.01515 16.5359 5.69138V8.43379C16.5359 8.64671 16.4227 8.84288 16.2401 8.94973C14.1213 10.1906 11.394 10.8748 8.5615 10.8748Z" fill="black"/>
</g>
<mask id="mask1_603_1056" style="mask-type:alpha" maskUnits="userSpaceOnUse" x="5" y="0" width="7" height="4">
<path fill-rule="evenodd" clip-rule="evenodd" d="M5.17627 0.595062H11.9545V3.84537H5.17627V0.595062Z" fill="white"/>
</mask>
<g mask="url(#mask1_603_1056)">
<path fill-rule="evenodd" clip-rule="evenodd" d="M11.3565 3.84536C11.0263 3.84536 10.7584 3.57741 10.7584 3.24727V2.95541C10.7584 2.31346 10.2361 1.79114 9.59411 1.79114H7.53671C6.89476 1.79114 6.37244 2.31346 6.37244 2.95541V3.24727C6.37244 3.57741 6.1045 3.84536 5.77435 3.84536C5.44421 3.84536 5.17627 3.57741 5.17627 3.24727V2.95541C5.17627 1.65398 6.23528 0.594971 7.53671 0.594971H9.59411C10.8955 0.594971 11.9545 1.65398 11.9545 2.95541V3.24727C11.9545 3.57741 11.6866 3.84536 11.3565 3.84536Z" fill="black"/>
</g>
<path fill-rule="evenodd" clip-rule="evenodd" d="M13.1904 16.3366H3.94008C2.28538 16.3366 0.892248 15.044 0.767049 13.3933L0.615534 11.3925C0.590814 11.0631 0.838021 10.7752 1.16737 10.7505C1.49831 10.7386 1.78379 10.9722 1.80931 11.3024L1.96003 13.3024C2.03818 14.3326 2.90739 15.1405 3.94008 15.1405H13.1904C14.2231 15.1405 15.0931 14.3326 15.1705 13.3024L15.322 11.3024C15.3475 10.9722 15.6402 10.7378 15.964 10.7505C16.2933 10.7752 16.5397 11.0631 16.515 11.3925L16.3635 13.3933C16.2383 15.044 14.8451 16.3366 13.1904 16.3366Z" fill="black"/>
</svg>
