<svg width="16" height="18" viewBox="0 0 16 18" fill="none" xmlns="http://www.w3.org/2000/svg">
<mask id="mask0_603_1098" style="mask-type:alpha" maskUnits="userSpaceOnUse" x="0" y="0" width="16" height="18">
<path fill-rule="evenodd" clip-rule="evenodd" d="M0.594788 0.5952H15.9726V17.1182H0.594788V0.5952Z" fill="white"/>
</mask>
<g mask="url(#mask0_603_1098)">
<path fill-rule="evenodd" clip-rule="evenodd" d="M4.74301 12.9071C4.92562 12.9071 5.10823 12.9302 5.28684 12.9781C5.82589 13.1232 6.29396 13.4836 6.57146 13.9677C6.75167 14.2715 6.85135 14.6263 6.85454 14.9883C6.85454 15.5066 7.27078 15.9221 7.78272 15.9221H8.78186C9.29141 15.9221 9.70765 15.509 9.71004 14.9995C9.70685 14.4365 9.92694 13.9015 10.3296 13.4988C10.7267 13.1017 11.2817 12.8633 11.8367 12.8792C12.2003 12.888 12.5504 12.9861 12.859 13.1615C13.3031 13.4159 13.8701 13.2644 14.1269 12.8258L14.6563 11.9431C14.7744 11.7397 14.8086 11.4845 14.7456 11.2493C14.6834 11.0141 14.5272 10.8099 14.3166 10.6895C13.8238 10.4057 13.4722 9.94795 13.3263 9.39933C13.1819 8.86109 13.2609 8.2734 13.5424 7.78938C13.7258 7.47042 13.9945 7.20169 14.3166 7.01669C14.7488 6.76392 14.9003 6.19856 14.6492 5.75839C14.6388 5.74085 14.6292 5.72251 14.6213 5.70337L14.154 4.89321C13.8996 4.45065 13.3334 4.29834 12.8893 4.55112C12.4093 4.835 11.8383 4.91633 11.2897 4.772C10.7419 4.63006 10.2826 4.28319 9.99631 3.79359C9.81291 3.48738 9.71323 3.13094 9.71004 2.76813C9.71722 2.49541 9.62153 2.25061 9.4477 2.07119C9.27466 1.89258 9.03145 1.79131 8.78186 1.79131H7.78272C7.53552 1.79131 7.30428 1.88779 7.12964 2.06163C6.95581 2.23626 6.86092 2.4683 6.86251 2.7155C6.84577 3.8813 5.89287 4.81985 4.73903 4.81985C4.36903 4.81586 4.01259 4.71618 3.7032 4.53118C3.26862 4.28399 2.70086 4.43629 2.44649 4.87885L1.90665 5.76636C1.65945 6.19537 1.81096 6.76232 2.25113 7.01829C2.9042 7.39626 3.31168 8.10116 3.31168 8.8571C3.31168 9.61304 2.9042 10.3171 2.24953 10.6959C1.81176 10.9495 1.66025 11.5133 1.91383 11.9518L2.41699 12.8194C2.54138 13.0435 2.74472 13.2053 2.97996 13.2715C3.21439 13.3369 3.47275 13.309 3.68805 13.1894C4.00462 13.0036 4.37302 12.9071 4.74301 12.9071ZM8.78187 17.1182H7.78272C6.61133 17.1182 5.65843 16.1661 5.65843 14.9947C5.65684 14.8504 5.61538 14.7005 5.53803 14.5705C5.41283 14.352 5.21029 14.1957 4.97665 14.1335C4.74461 14.0713 4.49024 14.1056 4.28132 14.2268C3.78055 14.5059 3.19127 14.5737 2.65222 14.4222C2.11397 14.2699 1.64909 13.8999 1.37638 13.4095L0.877999 12.5507C0.295097 11.5396 0.641967 10.2438 1.65148 9.66009C1.93775 9.49502 2.11557 9.18723 2.11557 8.8571C2.11557 8.52698 1.93775 8.21838 1.65148 8.05332C0.64117 7.46643 0.295097 6.16746 0.877201 5.15635L1.41784 4.26884C1.99277 3.26889 3.29254 2.91644 4.30604 3.49855C4.44399 3.58068 4.5939 3.62214 4.7462 3.62374C5.24299 3.62374 5.65843 3.21387 5.66641 2.70991C5.66322 2.15412 5.88251 1.62066 6.282 1.21797C6.6831 0.81608 7.21576 0.5952 7.78272 0.5952H8.78187C9.35281 0.5952 9.9078 0.829636 10.3057 1.23711C10.7028 1.64698 10.9221 2.20915 10.9054 2.77929C10.9069 2.90767 10.9492 3.05599 11.0258 3.18596C11.1525 3.40126 11.3527 3.55277 11.5903 3.61497C11.8279 3.67398 12.0767 3.64208 12.2881 3.51689C13.3087 2.93399 14.6077 3.28325 15.1906 4.29595L15.6874 5.15635C15.7001 5.17947 15.7113 5.2018 15.7209 5.22493C16.2488 6.22248 15.8963 7.47839 14.9155 8.05172C14.7728 8.13386 14.6571 8.24868 14.5774 8.38743C14.4538 8.60193 14.4195 8.8571 14.4817 9.09154C14.5455 9.33076 14.6978 9.52931 14.9123 9.65211C15.3963 9.93041 15.7576 10.3993 15.9019 10.9407C16.0462 11.4814 15.9673 12.0682 15.6858 12.5523L15.1563 13.4342C14.5734 14.4357 13.2744 14.7826 12.2641 14.1989C12.1294 14.1216 11.9739 14.0793 11.8192 14.0753H11.8144C11.5839 14.0753 11.3471 14.1734 11.1749 14.3448C11.0002 14.5195 10.9046 14.7523 10.9061 14.9995C10.9006 16.1709 9.94767 17.1182 8.78187 17.1182Z" fill="black"/>
</g>
<path fill-rule="evenodd" clip-rule="evenodd" d="M8.28582 7.35248C7.45652 7.35248 6.78192 8.02788 6.78192 8.85718C6.78192 9.68648 7.45652 10.3603 8.28582 10.3603C9.11512 10.3603 9.78973 9.68648 9.78973 8.85718C9.78973 8.02788 9.11512 7.35248 8.28582 7.35248ZM8.28582 11.5564C6.79707 11.5564 5.58582 10.3459 5.58582 8.85718C5.58582 7.36843 6.79707 6.15637 8.28582 6.15637C9.77458 6.15637 10.9858 7.36843 10.9858 8.85718C10.9858 10.3459 9.77458 11.5564 8.28582 11.5564Z" fill="black"/>
</svg>
